<mxfile host="app.diagrams.net" agent="Mozilla/5.0 (Windows NT 10.0; Win64; x64) AppleWebKit/537.36 (KHTML, like Gecko) Chrome/138.0.0.0 Safari/537.36" version="28.0.4" pages="2">
  <diagram name="Page-1" id="0BsEjYrFoc-LyxbfNglH">
    <mxGraphModel dx="768" dy="898" grid="0" gridSize="10" guides="1" tooltips="1" connect="1" arrows="1" fold="1" page="1" pageScale="1" pageWidth="850" pageHeight="1100" math="0" shadow="0">
      <root>
        <mxCell id="0" />
        <mxCell id="1" parent="0" />
        <mxCell id="FyGwAxZ3XgV7DjXuzyuT-1" value="Account&amp;nbsp;" style="rounded=0;whiteSpace=wrap;html=1;" parent="1" vertex="1">
          <mxGeometry x="565" y="450" width="100" height="40" as="geometry" />
        </mxCell>
        <mxCell id="FyGwAxZ3XgV7DjXuzyuT-2" value="Customer" style="rounded=0;whiteSpace=wrap;html=1;" parent="1" vertex="1">
          <mxGeometry x="240" y="450" width="110" height="40" as="geometry" />
        </mxCell>
        <mxCell id="FyGwAxZ3XgV7DjXuzyuT-3" value="Account_Member" style="rhombus;whiteSpace=wrap;html=1;" parent="1" vertex="1">
          <mxGeometry x="400" y="430" width="110" height="80" as="geometry" />
        </mxCell>
        <mxCell id="FyGwAxZ3XgV7DjXuzyuT-4" value="" style="endArrow=none;html=1;rounded=0;entryX=0;entryY=0.5;entryDx=0;entryDy=0;exitX=1;exitY=0.5;exitDx=0;exitDy=0;" parent="1" source="FyGwAxZ3XgV7DjXuzyuT-2" target="FyGwAxZ3XgV7DjXuzyuT-3" edge="1">
          <mxGeometry width="50" height="50" relative="1" as="geometry">
            <mxPoint x="430" y="700" as="sourcePoint" />
            <mxPoint x="480" y="650" as="targetPoint" />
          </mxGeometry>
        </mxCell>
        <mxCell id="FyGwAxZ3XgV7DjXuzyuT-5" value="" style="endArrow=none;html=1;rounded=0;entryX=1;entryY=0.5;entryDx=0;entryDy=0;exitX=0;exitY=0.5;exitDx=0;exitDy=0;" parent="1" source="FyGwAxZ3XgV7DjXuzyuT-1" target="FyGwAxZ3XgV7DjXuzyuT-3" edge="1">
          <mxGeometry width="50" height="50" relative="1" as="geometry">
            <mxPoint x="430" y="700" as="sourcePoint" />
            <mxPoint x="480" y="650" as="targetPoint" />
          </mxGeometry>
        </mxCell>
        <mxCell id="FyGwAxZ3XgV7DjXuzyuT-6" value="（1，N）" style="text;html=1;align=center;verticalAlign=middle;resizable=0;points=[];autosize=1;strokeColor=none;fillColor=none;" parent="1" vertex="1">
          <mxGeometry x="506" y="450" width="69" height="26" as="geometry" />
        </mxCell>
        <mxCell id="FyGwAxZ3XgV7DjXuzyuT-7" value="N" style="text;html=1;align=center;verticalAlign=middle;resizable=0;points=[];autosize=1;strokeColor=none;fillColor=none;" parent="1" vertex="1">
          <mxGeometry x="347" y="450" width="27" height="26" as="geometry" />
        </mxCell>
        <mxCell id="FyGwAxZ3XgV7DjXuzyuT-8" value="AccountAdmin" style="rounded=0;whiteSpace=wrap;html=1;" parent="1" vertex="1">
          <mxGeometry x="410" y="580" width="100" height="40" as="geometry" />
        </mxCell>
        <mxCell id="FyGwAxZ3XgV7DjXuzyuT-9" value="Is" style="rhombus;whiteSpace=wrap;html=1;" parent="1" vertex="1">
          <mxGeometry x="270" y="570" width="60" height="60" as="geometry" />
        </mxCell>
        <mxCell id="FyGwAxZ3XgV7DjXuzyuT-10" value="" style="endArrow=none;html=1;rounded=0;entryX=0.5;entryY=0;entryDx=0;entryDy=0;exitX=0.187;exitY=0.047;exitDx=0;exitDy=0;exitPerimeter=0;" parent="1" source="FyGwAxZ3XgV7DjXuzyuT-13" target="FyGwAxZ3XgV7DjXuzyuT-9" edge="1">
          <mxGeometry width="50" height="50" relative="1" as="geometry">
            <mxPoint x="430" y="700" as="sourcePoint" />
            <mxPoint x="480" y="650" as="targetPoint" />
          </mxGeometry>
        </mxCell>
        <mxCell id="FyGwAxZ3XgV7DjXuzyuT-11" value="" style="endArrow=none;html=1;rounded=0;exitX=1;exitY=0.5;exitDx=0;exitDy=0;entryX=0;entryY=0.5;entryDx=0;entryDy=0;" parent="1" source="FyGwAxZ3XgV7DjXuzyuT-9" target="FyGwAxZ3XgV7DjXuzyuT-8" edge="1">
          <mxGeometry width="50" height="50" relative="1" as="geometry">
            <mxPoint x="430" y="700" as="sourcePoint" />
            <mxPoint x="480" y="650" as="targetPoint" />
          </mxGeometry>
        </mxCell>
        <mxCell id="FyGwAxZ3XgV7DjXuzyuT-12" value="（1，N）" style="text;html=1;align=center;verticalAlign=middle;resizable=0;points=[];autosize=1;strokeColor=none;fillColor=none;" parent="1" vertex="1">
          <mxGeometry x="344" y="573" width="69" height="26" as="geometry" />
        </mxCell>
        <mxCell id="FyGwAxZ3XgV7DjXuzyuT-13" value="N" style="text;html=1;align=center;verticalAlign=middle;resizable=0;points=[];autosize=1;strokeColor=none;fillColor=none;" parent="1" vertex="1">
          <mxGeometry x="297" y="490" width="27" height="26" as="geometry" />
        </mxCell>
        <mxCell id="FyGwAxZ3XgV7DjXuzyuT-14" value="AccountAdmin" style="rhombus;whiteSpace=wrap;html=1;" parent="1" vertex="1">
          <mxGeometry x="555" y="570" width="120" height="60" as="geometry" />
        </mxCell>
        <mxCell id="FyGwAxZ3XgV7DjXuzyuT-15" value="" style="endArrow=none;html=1;rounded=0;entryX=0;entryY=0.5;entryDx=0;entryDy=0;exitX=1;exitY=0.5;exitDx=0;exitDy=0;" parent="1" source="FyGwAxZ3XgV7DjXuzyuT-8" target="FyGwAxZ3XgV7DjXuzyuT-14" edge="1">
          <mxGeometry width="50" height="50" relative="1" as="geometry">
            <mxPoint x="540" y="700" as="sourcePoint" />
            <mxPoint x="590" y="650" as="targetPoint" />
          </mxGeometry>
        </mxCell>
        <mxCell id="FyGwAxZ3XgV7DjXuzyuT-16" value="" style="endArrow=none;html=1;rounded=0;entryX=0.5;entryY=0;entryDx=0;entryDy=0;exitX=0.5;exitY=1;exitDx=0;exitDy=0;" parent="1" source="FyGwAxZ3XgV7DjXuzyuT-1" target="FyGwAxZ3XgV7DjXuzyuT-14" edge="1">
          <mxGeometry width="50" height="50" relative="1" as="geometry">
            <mxPoint x="540" y="700" as="sourcePoint" />
            <mxPoint x="590" y="650" as="targetPoint" />
          </mxGeometry>
        </mxCell>
        <mxCell id="FyGwAxZ3XgV7DjXuzyuT-17" value="N" style="text;html=1;align=center;verticalAlign=middle;resizable=0;points=[];autosize=1;strokeColor=none;fillColor=none;" parent="1" vertex="1">
          <mxGeometry x="517" y="580" width="27" height="26" as="geometry" />
        </mxCell>
        <mxCell id="FyGwAxZ3XgV7DjXuzyuT-18" value="1" style="text;html=1;align=center;verticalAlign=middle;resizable=0;points=[];autosize=1;strokeColor=none;fillColor=none;" parent="1" vertex="1">
          <mxGeometry x="588" y="490" width="25" height="26" as="geometry" />
        </mxCell>
        <mxCell id="FyGwAxZ3XgV7DjXuzyuT-19" value="AccountAlias" style="rounded=0;whiteSpace=wrap;html=1;" parent="1" vertex="1">
          <mxGeometry x="570" y="250" width="90" height="40" as="geometry" />
        </mxCell>
        <mxCell id="FyGwAxZ3XgV7DjXuzyuT-20" value="hasAccountAlias" style="rhombus;whiteSpace=wrap;html=1;" parent="1" vertex="1">
          <mxGeometry x="560" y="330" width="110" height="80" as="geometry" />
        </mxCell>
        <mxCell id="FyGwAxZ3XgV7DjXuzyuT-21" value="" style="endArrow=none;html=1;rounded=0;entryX=0.5;entryY=0;entryDx=0;entryDy=0;exitX=0.5;exitY=1;exitDx=0;exitDy=0;" parent="1" source="FyGwAxZ3XgV7DjXuzyuT-19" target="FyGwAxZ3XgV7DjXuzyuT-20" edge="1">
          <mxGeometry width="50" height="50" relative="1" as="geometry">
            <mxPoint x="700" y="700" as="sourcePoint" />
            <mxPoint x="750" y="650" as="targetPoint" />
          </mxGeometry>
        </mxCell>
        <mxCell id="FyGwAxZ3XgV7DjXuzyuT-22" value="" style="endArrow=none;html=1;rounded=0;entryX=0.5;entryY=0;entryDx=0;entryDy=0;exitX=0.5;exitY=1;exitDx=0;exitDy=0;" parent="1" edge="1">
          <mxGeometry width="50" height="50" relative="1" as="geometry">
            <mxPoint x="614.5" y="410" as="sourcePoint" />
            <mxPoint x="614.5" y="450" as="targetPoint" />
          </mxGeometry>
        </mxCell>
        <mxCell id="FyGwAxZ3XgV7DjXuzyuT-23" value="N" style="text;html=1;align=center;verticalAlign=middle;resizable=0;points=[];autosize=1;strokeColor=none;fillColor=none;" parent="1" vertex="1">
          <mxGeometry x="617" y="290" width="27" height="26" as="geometry" />
        </mxCell>
        <mxCell id="FyGwAxZ3XgV7DjXuzyuT-24" value="1" style="text;html=1;align=center;verticalAlign=middle;resizable=0;points=[];autosize=1;strokeColor=none;fillColor=none;" parent="1" vertex="1">
          <mxGeometry x="618" y="412" width="25" height="26" as="geometry" />
        </mxCell>
        <mxCell id="FyGwAxZ3XgV7DjXuzyuT-25" value="Associate" style="rounded=0;whiteSpace=wrap;html=1;" parent="1" vertex="1">
          <mxGeometry x="910" y="450" width="100" height="40" as="geometry" />
        </mxCell>
        <mxCell id="FyGwAxZ3XgV7DjXuzyuT-26" value="ManagerContract" style="rhombus;whiteSpace=wrap;html=1;" parent="1" vertex="1">
          <mxGeometry x="710" y="430" width="140" height="80" as="geometry" />
        </mxCell>
        <mxCell id="FyGwAxZ3XgV7DjXuzyuT-27" value="" style="endArrow=none;html=1;rounded=0;entryX=1;entryY=0.5;entryDx=0;entryDy=0;exitX=0;exitY=0.5;exitDx=0;exitDy=0;" parent="1" source="FyGwAxZ3XgV7DjXuzyuT-25" target="FyGwAxZ3XgV7DjXuzyuT-26" edge="1">
          <mxGeometry width="50" height="50" relative="1" as="geometry">
            <mxPoint x="810" y="700" as="sourcePoint" />
            <mxPoint x="860" y="650" as="targetPoint" />
          </mxGeometry>
        </mxCell>
        <mxCell id="FyGwAxZ3XgV7DjXuzyuT-28" value="" style="endArrow=none;html=1;rounded=0;entryX=0;entryY=0.5;entryDx=0;entryDy=0;" parent="1" source="FyGwAxZ3XgV7DjXuzyuT-1" target="FyGwAxZ3XgV7DjXuzyuT-26" edge="1">
          <mxGeometry width="50" height="50" relative="1" as="geometry">
            <mxPoint x="810" y="700" as="sourcePoint" />
            <mxPoint x="860" y="650" as="targetPoint" />
          </mxGeometry>
        </mxCell>
        <mxCell id="FyGwAxZ3XgV7DjXuzyuT-29" value="Contract" style="rounded=0;whiteSpace=wrap;html=1;" parent="1" vertex="1">
          <mxGeometry x="730" y="590" width="100" height="40" as="geometry" />
        </mxCell>
        <mxCell id="FyGwAxZ3XgV7DjXuzyuT-30" value="" style="endArrow=none;html=1;rounded=0;entryX=0.5;entryY=1;entryDx=0;entryDy=0;exitX=0.5;exitY=0;exitDx=0;exitDy=0;" parent="1" source="FyGwAxZ3XgV7DjXuzyuT-29" target="FyGwAxZ3XgV7DjXuzyuT-26" edge="1">
          <mxGeometry width="50" height="50" relative="1" as="geometry">
            <mxPoint x="810" y="700" as="sourcePoint" />
            <mxPoint x="860" y="650" as="targetPoint" />
          </mxGeometry>
        </mxCell>
        <mxCell id="FyGwAxZ3XgV7DjXuzyuT-31" value="ContractPremium" style="rhombus;whiteSpace=wrap;html=1;" parent="1" vertex="1">
          <mxGeometry x="905" y="560" width="110" height="80" as="geometry" />
        </mxCell>
        <mxCell id="FyGwAxZ3XgV7DjXuzyuT-32" value="" style="endArrow=none;html=1;rounded=0;entryX=0.5;entryY=0;entryDx=0;entryDy=0;exitX=0.5;exitY=1;exitDx=0;exitDy=0;" parent="1" source="FyGwAxZ3XgV7DjXuzyuT-25" target="FyGwAxZ3XgV7DjXuzyuT-31" edge="1">
          <mxGeometry width="50" height="50" relative="1" as="geometry">
            <mxPoint x="810" y="700" as="sourcePoint" />
            <mxPoint x="860" y="650" as="targetPoint" />
          </mxGeometry>
        </mxCell>
        <mxCell id="FyGwAxZ3XgV7DjXuzyuT-33" value="" style="endArrow=none;html=1;rounded=0;entryX=0;entryY=0.5;entryDx=0;entryDy=0;exitX=1;exitY=0.25;exitDx=0;exitDy=0;" parent="1" source="FyGwAxZ3XgV7DjXuzyuT-29" target="FyGwAxZ3XgV7DjXuzyuT-31" edge="1">
          <mxGeometry width="50" height="50" relative="1" as="geometry">
            <mxPoint x="810" y="700" as="sourcePoint" />
            <mxPoint x="860" y="650" as="targetPoint" />
          </mxGeometry>
        </mxCell>
        <mxCell id="FyGwAxZ3XgV7DjXuzyuT-34" value="Contest" style="rounded=0;whiteSpace=wrap;html=1;" parent="1" vertex="1">
          <mxGeometry x="1090" y="580" width="100" height="40" as="geometry" />
        </mxCell>
        <mxCell id="FyGwAxZ3XgV7DjXuzyuT-35" value="" style="endArrow=none;html=1;rounded=0;entryX=1;entryY=0.5;entryDx=0;entryDy=0;exitX=0;exitY=0.5;exitDx=0;exitDy=0;" parent="1" source="FyGwAxZ3XgV7DjXuzyuT-34" target="FyGwAxZ3XgV7DjXuzyuT-31" edge="1">
          <mxGeometry width="50" height="50" relative="1" as="geometry">
            <mxPoint x="960" y="700" as="sourcePoint" />
            <mxPoint x="1010" y="650" as="targetPoint" />
          </mxGeometry>
        </mxCell>
        <mxCell id="FyGwAxZ3XgV7DjXuzyuT-36" value="Assoc_Contest" style="rhombus;whiteSpace=wrap;html=1;" parent="1" vertex="1">
          <mxGeometry x="1080" y="430" width="110" height="80" as="geometry" />
        </mxCell>
        <mxCell id="FyGwAxZ3XgV7DjXuzyuT-37" value="" style="endArrow=none;html=1;rounded=0;entryX=0.5;entryY=1;entryDx=0;entryDy=0;exitX=0.5;exitY=0;exitDx=0;exitDy=0;" parent="1" target="FyGwAxZ3XgV7DjXuzyuT-36" edge="1" source="FyGwAxZ3XgV7DjXuzyuT-34">
          <mxGeometry width="50" height="50" relative="1" as="geometry">
            <mxPoint x="1140" y="578" as="sourcePoint" />
            <mxPoint x="1010" y="650" as="targetPoint" />
          </mxGeometry>
        </mxCell>
        <mxCell id="FyGwAxZ3XgV7DjXuzyuT-38" value="" style="endArrow=none;html=1;rounded=0;entryX=0;entryY=0.5;entryDx=0;entryDy=0;exitX=1;exitY=0.5;exitDx=0;exitDy=0;" parent="1" source="FyGwAxZ3XgV7DjXuzyuT-25" target="FyGwAxZ3XgV7DjXuzyuT-36" edge="1">
          <mxGeometry width="50" height="50" relative="1" as="geometry">
            <mxPoint x="960" y="700" as="sourcePoint" />
            <mxPoint x="1010" y="650" as="targetPoint" />
          </mxGeometry>
        </mxCell>
        <mxCell id="FyGwAxZ3XgV7DjXuzyuT-39" value="Owns" style="rhombus;whiteSpace=wrap;html=1;" parent="1" vertex="1">
          <mxGeometry x="410" y="660" width="100" height="80" as="geometry" />
        </mxCell>
        <mxCell id="FyGwAxZ3XgV7DjXuzyuT-40" value="" style="endArrow=none;html=1;rounded=0;exitX=1;exitY=0.5;exitDx=0;exitDy=0;entryX=0.4;entryY=1;entryDx=0;entryDy=0;entryPerimeter=0;" parent="1" source="FyGwAxZ3XgV7DjXuzyuT-39" target="FyGwAxZ3XgV7DjXuzyuT-29" edge="1">
          <mxGeometry width="50" height="50" relative="1" as="geometry">
            <mxPoint x="480" y="700" as="sourcePoint" />
            <mxPoint x="780" y="700" as="targetPoint" />
            <Array as="points">
              <mxPoint x="770" y="700" />
            </Array>
          </mxGeometry>
        </mxCell>
        <mxCell id="FyGwAxZ3XgV7DjXuzyuT-41" value="" style="endArrow=none;html=1;rounded=0;entryX=0;entryY=0.5;entryDx=0;entryDy=0;" parent="1" target="FyGwAxZ3XgV7DjXuzyuT-39" edge="1">
          <mxGeometry width="50" height="50" relative="1" as="geometry">
            <mxPoint x="250" y="700" as="sourcePoint" />
            <mxPoint x="390" y="650" as="targetPoint" />
            <Array as="points">
              <mxPoint x="250" y="490" />
              <mxPoint x="250" y="700" />
            </Array>
          </mxGeometry>
        </mxCell>
        <mxCell id="jhznefIaXftux0GBMFJ3-2" value="這邊想改成customer &quot;owns&quot; contract 1..* (done)&amp;nbsp;" style="text;html=1;align=center;verticalAlign=middle;whiteSpace=wrap;rounded=0;strokeColor=#3333FF;" parent="1" vertex="1">
          <mxGeometry x="357" y="920" width="223" height="30" as="geometry" />
        </mxCell>
        <mxCell id="UmWG4i0JJfv33wFbpH96-1" value="N" style="text;html=1;align=center;verticalAlign=middle;resizable=0;points=[];autosize=1;strokeColor=none;fillColor=none;" vertex="1" parent="1">
          <mxGeometry x="873" y="448" width="27" height="26" as="geometry" />
        </mxCell>
        <mxCell id="UmWG4i0JJfv33wFbpH96-2" value="1" style="text;html=1;align=center;verticalAlign=middle;resizable=0;points=[];autosize=1;strokeColor=none;fillColor=none;" vertex="1" parent="1">
          <mxGeometry x="678" y="447" width="25" height="26" as="geometry" />
        </mxCell>
        <mxCell id="UmWG4i0JJfv33wFbpH96-3" value="N" style="text;html=1;align=center;verticalAlign=middle;resizable=0;points=[];autosize=1;strokeColor=none;fillColor=none;" vertex="1" parent="1">
          <mxGeometry x="781" y="540" width="27" height="26" as="geometry" />
        </mxCell>
        <mxCell id="UmWG4i0JJfv33wFbpH96-4" value="N" style="text;html=1;align=center;verticalAlign=middle;resizable=0;points=[];autosize=1;strokeColor=none;fillColor=none;" vertex="1" parent="1">
          <mxGeometry x="305" y="673" width="27" height="26" as="geometry" />
        </mxCell>
        <mxCell id="UmWG4i0JJfv33wFbpH96-5" value="（1，N）" style="text;html=1;align=center;verticalAlign=middle;resizable=0;points=[];autosize=1;strokeColor=none;fillColor=none;" vertex="1" parent="1">
          <mxGeometry x="692" y="670" width="69" height="26" as="geometry" />
        </mxCell>
        <mxCell id="UmWG4i0JJfv33wFbpH96-6" value="BillingAccount" style="rounded=0;whiteSpace=wrap;html=1;" vertex="1" parent="1">
          <mxGeometry x="246" y="300" width="118" height="30" as="geometry" />
        </mxCell>
        <mxCell id="UmWG4i0JJfv33wFbpH96-7" value="Account_BillingAccount" style="rhombus;whiteSpace=wrap;html=1;" vertex="1" parent="1">
          <mxGeometry x="350" y="330" width="158" height="80" as="geometry" />
        </mxCell>
        <mxCell id="UmWG4i0JJfv33wFbpH96-9" value="" style="endArrow=none;html=1;rounded=0;entryX=1;entryY=1;entryDx=0;entryDy=0;exitX=0.5;exitY=0;exitDx=0;exitDy=0;" edge="1" parent="1" source="UmWG4i0JJfv33wFbpH96-7" target="UmWG4i0JJfv33wFbpH96-6">
          <mxGeometry width="50" height="50" relative="1" as="geometry">
            <mxPoint x="606" y="486" as="sourcePoint" />
            <mxPoint x="656" y="436" as="targetPoint" />
          </mxGeometry>
        </mxCell>
        <mxCell id="UmWG4i0JJfv33wFbpH96-10" value="" style="endArrow=none;html=1;rounded=0;entryX=1;entryY=0.5;entryDx=0;entryDy=0;exitX=0.852;exitY=-0.069;exitDx=0;exitDy=0;exitPerimeter=0;" edge="1" parent="1" source="FyGwAxZ3XgV7DjXuzyuT-6" target="UmWG4i0JJfv33wFbpH96-7">
          <mxGeometry width="50" height="50" relative="1" as="geometry">
            <mxPoint x="606" y="486" as="sourcePoint" />
            <mxPoint x="656" y="436" as="targetPoint" />
          </mxGeometry>
        </mxCell>
        <mxCell id="UmWG4i0JJfv33wFbpH96-11" value="M" style="text;html=1;align=center;verticalAlign=middle;resizable=0;points=[];autosize=1;strokeColor=none;fillColor=none;" vertex="1" parent="1">
          <mxGeometry x="375" y="304" width="28" height="26" as="geometry" />
        </mxCell>
        <mxCell id="UmWG4i0JJfv33wFbpH96-12" value="N" style="text;html=1;align=center;verticalAlign=middle;resizable=0;points=[];autosize=1;strokeColor=none;fillColor=none;" vertex="1" parent="1">
          <mxGeometry x="514" y="366" width="27" height="26" as="geometry" />
        </mxCell>
        <mxCell id="UmWG4i0JJfv33wFbpH96-13" value="AccountRelation" style="rhombus;whiteSpace=wrap;html=1;" vertex="1" parent="1">
          <mxGeometry x="703" y="290" width="105" height="80" as="geometry" />
        </mxCell>
        <mxCell id="UmWG4i0JJfv33wFbpH96-14" value="" style="endArrow=none;html=1;rounded=0;entryX=0;entryY=0.5;entryDx=0;entryDy=0;exitX=1;exitY=0;exitDx=0;exitDy=0;" edge="1" parent="1" source="FyGwAxZ3XgV7DjXuzyuT-1" target="UmWG4i0JJfv33wFbpH96-13">
          <mxGeometry width="50" height="50" relative="1" as="geometry">
            <mxPoint x="799" y="486" as="sourcePoint" />
            <mxPoint x="849" y="436" as="targetPoint" />
          </mxGeometry>
        </mxCell>
        <mxCell id="UmWG4i0JJfv33wFbpH96-15" value="" style="endArrow=none;html=1;rounded=0;entryX=0.5;entryY=1;entryDx=0;entryDy=0;exitX=1;exitY=0;exitDx=0;exitDy=0;" edge="1" parent="1" source="FyGwAxZ3XgV7DjXuzyuT-1" target="UmWG4i0JJfv33wFbpH96-13">
          <mxGeometry width="50" height="50" relative="1" as="geometry">
            <mxPoint x="799" y="486" as="sourcePoint" />
            <mxPoint x="849" y="436" as="targetPoint" />
          </mxGeometry>
        </mxCell>
        <mxCell id="UmWG4i0JJfv33wFbpH96-16" value="M" style="text;html=1;align=center;verticalAlign=middle;resizable=0;points=[];autosize=1;strokeColor=none;fillColor=none;" vertex="1" parent="1">
          <mxGeometry x="691" y="344" width="28" height="26" as="geometry" />
        </mxCell>
        <mxCell id="UmWG4i0JJfv33wFbpH96-17" value="N" style="text;html=1;align=center;verticalAlign=middle;resizable=0;points=[];autosize=1;strokeColor=none;fillColor=none;" vertex="1" parent="1">
          <mxGeometry x="716" y="362" width="27" height="26" as="geometry" />
        </mxCell>
      </root>
    </mxGraphModel>
  </diagram>
  <diagram id="njF0p4-l5x48rLC_md44" name="Page-2">
    <mxGraphModel dx="44" dy="26" grid="1" gridSize="10" guides="1" tooltips="1" connect="1" arrows="1" fold="1" page="1" pageScale="1" pageWidth="850" pageHeight="1100" math="0" shadow="0">
      <root>
        <mxCell id="0" />
        <mxCell id="1" parent="0" />
        <mxCell id="4QjDc2ntXNkwie98VRhu-1" value="Account&amp;nbsp;" style="rounded=0;whiteSpace=wrap;html=1;fillColor=#E6E6E6;" vertex="1" parent="1">
          <mxGeometry x="365" y="310" width="100" height="40" as="geometry" />
        </mxCell>
        <mxCell id="4QjDc2ntXNkwie98VRhu-2" value="Customer" style="rounded=0;whiteSpace=wrap;html=1;fillColor=#E6E6E6;" vertex="1" parent="1">
          <mxGeometry x="40" y="310" width="110" height="40" as="geometry" />
        </mxCell>
        <mxCell id="4QjDc2ntXNkwie98VRhu-3" value="Account_Member" style="rhombus;whiteSpace=wrap;html=1;" vertex="1" parent="1">
          <mxGeometry x="200" y="290" width="110" height="80" as="geometry" />
        </mxCell>
        <mxCell id="4QjDc2ntXNkwie98VRhu-4" value="" style="endArrow=none;html=1;rounded=0;entryX=0;entryY=0.5;entryDx=0;entryDy=0;exitX=1;exitY=0.5;exitDx=0;exitDy=0;" edge="1" parent="1" source="4QjDc2ntXNkwie98VRhu-2" target="4QjDc2ntXNkwie98VRhu-3">
          <mxGeometry width="50" height="50" relative="1" as="geometry">
            <mxPoint x="230" y="560" as="sourcePoint" />
            <mxPoint x="280" y="510" as="targetPoint" />
          </mxGeometry>
        </mxCell>
        <mxCell id="4QjDc2ntXNkwie98VRhu-5" value="" style="endArrow=none;html=1;rounded=0;entryX=1;entryY=0.5;entryDx=0;entryDy=0;exitX=0;exitY=0.5;exitDx=0;exitDy=0;" edge="1" parent="1" source="4QjDc2ntXNkwie98VRhu-1" target="4QjDc2ntXNkwie98VRhu-3">
          <mxGeometry width="50" height="50" relative="1" as="geometry">
            <mxPoint x="230" y="560" as="sourcePoint" />
            <mxPoint x="280" y="510" as="targetPoint" />
          </mxGeometry>
        </mxCell>
        <mxCell id="4QjDc2ntXNkwie98VRhu-6" value="1..*" style="text;html=1;align=center;verticalAlign=middle;resizable=0;points=[];autosize=1;strokeColor=none;fillColor=none;" vertex="1" parent="1">
          <mxGeometry x="320" y="308" width="40" height="30" as="geometry" />
        </mxCell>
        <mxCell id="4QjDc2ntXNkwie98VRhu-7" value="*" style="text;html=1;align=center;verticalAlign=middle;resizable=0;points=[];autosize=1;strokeColor=none;fillColor=none;" vertex="1" parent="1">
          <mxGeometry x="145" y="308" width="30" height="30" as="geometry" />
        </mxCell>
        <mxCell id="4QjDc2ntXNkwie98VRhu-8" value="AccountAdmin" style="rounded=0;whiteSpace=wrap;html=1;" vertex="1" parent="1">
          <mxGeometry x="210" y="440" width="100" height="40" as="geometry" />
        </mxCell>
        <mxCell id="4QjDc2ntXNkwie98VRhu-9" value="Is" style="rhombus;whiteSpace=wrap;html=1;" vertex="1" parent="1">
          <mxGeometry x="70" y="430" width="60" height="60" as="geometry" />
        </mxCell>
        <mxCell id="4QjDc2ntXNkwie98VRhu-10" value="" style="endArrow=none;html=1;rounded=0;entryX=0.5;entryY=0;entryDx=0;entryDy=0;exitX=0.187;exitY=0.047;exitDx=0;exitDy=0;exitPerimeter=0;" edge="1" parent="1" source="4QjDc2ntXNkwie98VRhu-13" target="4QjDc2ntXNkwie98VRhu-9">
          <mxGeometry width="50" height="50" relative="1" as="geometry">
            <mxPoint x="230" y="560" as="sourcePoint" />
            <mxPoint x="280" y="510" as="targetPoint" />
          </mxGeometry>
        </mxCell>
        <mxCell id="4QjDc2ntXNkwie98VRhu-11" value="" style="endArrow=none;html=1;rounded=0;exitX=1;exitY=0.5;exitDx=0;exitDy=0;entryX=0;entryY=0.5;entryDx=0;entryDy=0;" edge="1" parent="1" source="4QjDc2ntXNkwie98VRhu-9" target="4QjDc2ntXNkwie98VRhu-8">
          <mxGeometry width="50" height="50" relative="1" as="geometry">
            <mxPoint x="230" y="560" as="sourcePoint" />
            <mxPoint x="280" y="510" as="targetPoint" />
          </mxGeometry>
        </mxCell>
        <mxCell id="4QjDc2ntXNkwie98VRhu-12" value="1..*" style="text;html=1;align=center;verticalAlign=middle;resizable=0;points=[];autosize=1;strokeColor=none;fillColor=none;" vertex="1" parent="1">
          <mxGeometry x="170" y="428" width="40" height="30" as="geometry" />
        </mxCell>
        <mxCell id="4QjDc2ntXNkwie98VRhu-13" value="*" style="text;html=1;align=center;verticalAlign=middle;resizable=0;points=[];autosize=1;strokeColor=none;fillColor=none;" vertex="1" parent="1">
          <mxGeometry x="95" y="348" width="30" height="30" as="geometry" />
        </mxCell>
        <mxCell id="4QjDc2ntXNkwie98VRhu-14" value="AccountAdmin" style="rhombus;whiteSpace=wrap;html=1;" vertex="1" parent="1">
          <mxGeometry x="355" y="430" width="120" height="60" as="geometry" />
        </mxCell>
        <mxCell id="4QjDc2ntXNkwie98VRhu-15" value="" style="endArrow=none;html=1;rounded=0;entryX=0;entryY=0.5;entryDx=0;entryDy=0;exitX=1;exitY=0.5;exitDx=0;exitDy=0;" edge="1" parent="1" source="4QjDc2ntXNkwie98VRhu-8" target="4QjDc2ntXNkwie98VRhu-14">
          <mxGeometry width="50" height="50" relative="1" as="geometry">
            <mxPoint x="340" y="560" as="sourcePoint" />
            <mxPoint x="390" y="510" as="targetPoint" />
          </mxGeometry>
        </mxCell>
        <mxCell id="4QjDc2ntXNkwie98VRhu-16" value="" style="endArrow=none;html=1;rounded=0;entryX=0.5;entryY=0;entryDx=0;entryDy=0;exitX=0.5;exitY=1;exitDx=0;exitDy=0;" edge="1" parent="1" source="4QjDc2ntXNkwie98VRhu-1" target="4QjDc2ntXNkwie98VRhu-14">
          <mxGeometry width="50" height="50" relative="1" as="geometry">
            <mxPoint x="340" y="560" as="sourcePoint" />
            <mxPoint x="390" y="510" as="targetPoint" />
          </mxGeometry>
        </mxCell>
        <mxCell id="4QjDc2ntXNkwie98VRhu-17" value="*" style="text;html=1;align=center;verticalAlign=middle;resizable=0;points=[];autosize=1;strokeColor=none;fillColor=none;" vertex="1" parent="1">
          <mxGeometry x="315" y="438" width="30" height="30" as="geometry" />
        </mxCell>
        <mxCell id="4QjDc2ntXNkwie98VRhu-18" value="1..1" style="text;html=1;align=center;verticalAlign=middle;resizable=0;points=[];autosize=1;strokeColor=none;fillColor=none;" vertex="1" parent="1">
          <mxGeometry x="380" y="348" width="40" height="30" as="geometry" />
        </mxCell>
        <mxCell id="4QjDc2ntXNkwie98VRhu-19" value="AccountAlias" style="rounded=0;whiteSpace=wrap;html=1;" vertex="1" parent="1">
          <mxGeometry x="324" y="110" width="90" height="40" as="geometry" />
        </mxCell>
        <mxCell id="4QjDc2ntXNkwie98VRhu-20" value="hasAccountAlias" style="rhombus;whiteSpace=wrap;html=1;" vertex="1" parent="1">
          <mxGeometry x="314" y="190" width="110" height="80" as="geometry" />
        </mxCell>
        <mxCell id="4QjDc2ntXNkwie98VRhu-21" value="" style="endArrow=none;html=1;rounded=0;entryX=0.5;entryY=0;entryDx=0;entryDy=0;exitX=0.5;exitY=1;exitDx=0;exitDy=0;" edge="1" parent="1" source="4QjDc2ntXNkwie98VRhu-19" target="4QjDc2ntXNkwie98VRhu-20">
          <mxGeometry width="50" height="50" relative="1" as="geometry">
            <mxPoint x="465" y="560" as="sourcePoint" />
            <mxPoint x="515" y="510" as="targetPoint" />
          </mxGeometry>
        </mxCell>
        <mxCell id="4QjDc2ntXNkwie98VRhu-22" value="" style="endArrow=none;html=1;rounded=0;entryX=0.5;entryY=0;entryDx=0;entryDy=0;exitX=0.5;exitY=1;exitDx=0;exitDy=0;" edge="1" parent="1">
          <mxGeometry width="50" height="50" relative="1" as="geometry">
            <mxPoint x="369.5" y="270" as="sourcePoint" />
            <mxPoint x="369.5" y="310" as="targetPoint" />
          </mxGeometry>
        </mxCell>
        <mxCell id="4QjDc2ntXNkwie98VRhu-23" value="*" style="text;html=1;align=center;verticalAlign=middle;resizable=0;points=[];autosize=1;strokeColor=none;fillColor=none;" vertex="1" parent="1">
          <mxGeometry x="369" y="148" width="30" height="30" as="geometry" />
        </mxCell>
        <mxCell id="4QjDc2ntXNkwie98VRhu-24" value="1..1" style="text;html=1;align=center;verticalAlign=middle;resizable=0;points=[];autosize=1;strokeColor=none;fillColor=none;" vertex="1" parent="1">
          <mxGeometry x="365" y="270" width="40" height="30" as="geometry" />
        </mxCell>
        <mxCell id="4QjDc2ntXNkwie98VRhu-25" value="Associate" style="rounded=0;whiteSpace=wrap;html=1;fillColor=#E6E6E6;" vertex="1" parent="1">
          <mxGeometry x="710" y="310" width="100" height="40" as="geometry" />
        </mxCell>
        <mxCell id="4QjDc2ntXNkwie98VRhu-26" value="ManagerContract" style="rhombus;whiteSpace=wrap;html=1;" vertex="1" parent="1">
          <mxGeometry x="510" y="290" width="140" height="80" as="geometry" />
        </mxCell>
        <mxCell id="4QjDc2ntXNkwie98VRhu-27" value="" style="endArrow=none;html=1;rounded=0;entryX=1;entryY=0.5;entryDx=0;entryDy=0;exitX=0;exitY=0.5;exitDx=0;exitDy=0;" edge="1" parent="1" source="4QjDc2ntXNkwie98VRhu-25" target="4QjDc2ntXNkwie98VRhu-26">
          <mxGeometry width="50" height="50" relative="1" as="geometry">
            <mxPoint x="610" y="560" as="sourcePoint" />
            <mxPoint x="660" y="510" as="targetPoint" />
          </mxGeometry>
        </mxCell>
        <mxCell id="4QjDc2ntXNkwie98VRhu-28" value="" style="endArrow=none;html=1;rounded=0;entryX=0;entryY=0.5;entryDx=0;entryDy=0;" edge="1" parent="1" source="4QjDc2ntXNkwie98VRhu-1" target="4QjDc2ntXNkwie98VRhu-26">
          <mxGeometry width="50" height="50" relative="1" as="geometry">
            <mxPoint x="610" y="560" as="sourcePoint" />
            <mxPoint x="660" y="510" as="targetPoint" />
          </mxGeometry>
        </mxCell>
        <mxCell id="4QjDc2ntXNkwie98VRhu-29" value="Contract" style="rounded=0;whiteSpace=wrap;html=1;fillColor=#E6E6E6;" vertex="1" parent="1">
          <mxGeometry x="530" y="450" width="100" height="40" as="geometry" />
        </mxCell>
        <mxCell id="4QjDc2ntXNkwie98VRhu-30" value="&lt;span style=&quot;caret-color: rgba(0, 0, 0, 0); color: rgba(0, 0, 0, 0); font-family: monospace; font-size: 0px; text-align: start; background-color: rgb(236, 236, 236);&quot;&gt;%3CmxGraphModel%3E%3Croot%3E%3CmxCell%20id%3D%220%22%2F%3E%3CmxCell%20id%3D%221%22%20parent%3D%220%22%2F%3E%3CmxCell%20id%3D%222%22%20value%3D%22%22%20style%3D%22endArrow%3Dnone%3Bhtml%3D1%3Brounded%3D0%3BentryX%3D0.5%3BentryY%3D1%3BentryDx%3D0%3BentryDy%3D0%3BexitX%3D0.5%3BexitY%3D0%3BexitDx%3D0%3BexitDy%3D0%3B%22%20edge%3D%221%22%20parent%3D%221%22%3E%3CmxGeometry%20width%3D%2250%22%20height%3D%2250%22%20relative%3D%221%22%20as%3D%22geometry%22%3E%3CmxPoint%20x%3D%22580%22%20y%3D%22450%22%20as%3D%22sourcePoint%22%2F%3E%3CmxPoint%20x%3D%22580%22%20y%3D%22370%22%20as%3D%22targetPoint%22%2F%3E%3C%2FmxGeometry%3E%3C%2FmxCell%3E%3C%2Froot%3E%3C%2FmxGraphModel%3E&lt;/span&gt;" style="endArrow=none;html=1;rounded=0;entryX=0.5;entryY=1;entryDx=0;entryDy=0;exitX=0.5;exitY=0;exitDx=0;exitDy=0;" edge="1" parent="1" source="4QjDc2ntXNkwie98VRhu-29" target="4QjDc2ntXNkwie98VRhu-26">
          <mxGeometry width="50" height="50" relative="1" as="geometry">
            <mxPoint x="610" y="560" as="sourcePoint" />
            <mxPoint x="660" y="510" as="targetPoint" />
          </mxGeometry>
        </mxCell>
        <mxCell id="4QjDc2ntXNkwie98VRhu-31" value="ContractPremium" style="rhombus;whiteSpace=wrap;html=1;" vertex="1" parent="1">
          <mxGeometry x="705" y="420" width="110" height="80" as="geometry" />
        </mxCell>
        <mxCell id="4QjDc2ntXNkwie98VRhu-32" value="" style="endArrow=none;html=1;rounded=0;entryX=0.5;entryY=0;entryDx=0;entryDy=0;exitX=0.5;exitY=1;exitDx=0;exitDy=0;" edge="1" parent="1" source="4QjDc2ntXNkwie98VRhu-25" target="4QjDc2ntXNkwie98VRhu-31">
          <mxGeometry width="50" height="50" relative="1" as="geometry">
            <mxPoint x="610" y="560" as="sourcePoint" />
            <mxPoint x="660" y="510" as="targetPoint" />
          </mxGeometry>
        </mxCell>
        <mxCell id="4QjDc2ntXNkwie98VRhu-33" value="" style="endArrow=none;html=1;rounded=0;entryX=0;entryY=0.5;entryDx=0;entryDy=0;exitX=1;exitY=0.25;exitDx=0;exitDy=0;" edge="1" parent="1" source="4QjDc2ntXNkwie98VRhu-29" target="4QjDc2ntXNkwie98VRhu-31">
          <mxGeometry width="50" height="50" relative="1" as="geometry">
            <mxPoint x="610" y="560" as="sourcePoint" />
            <mxPoint x="660" y="510" as="targetPoint" />
          </mxGeometry>
        </mxCell>
        <mxCell id="4QjDc2ntXNkwie98VRhu-34" value="Contest" style="rounded=0;whiteSpace=wrap;html=1;" vertex="1" parent="1">
          <mxGeometry x="890" y="440" width="100" height="40" as="geometry" />
        </mxCell>
        <mxCell id="4QjDc2ntXNkwie98VRhu-35" value="" style="endArrow=none;html=1;rounded=0;entryX=1;entryY=0.5;entryDx=0;entryDy=0;exitX=0;exitY=0.5;exitDx=0;exitDy=0;" edge="1" parent="1" source="4QjDc2ntXNkwie98VRhu-34" target="4QjDc2ntXNkwie98VRhu-31">
          <mxGeometry width="50" height="50" relative="1" as="geometry">
            <mxPoint x="760" y="560" as="sourcePoint" />
            <mxPoint x="810" y="510" as="targetPoint" />
          </mxGeometry>
        </mxCell>
        <mxCell id="4QjDc2ntXNkwie98VRhu-36" value="Assoc_Contest" style="rhombus;whiteSpace=wrap;html=1;" vertex="1" parent="1">
          <mxGeometry x="880" y="290" width="110" height="80" as="geometry" />
        </mxCell>
        <mxCell id="4QjDc2ntXNkwie98VRhu-37" value="" style="endArrow=none;html=1;rounded=0;entryX=0.5;entryY=1;entryDx=0;entryDy=0;" edge="1" parent="1" target="4QjDc2ntXNkwie98VRhu-36">
          <mxGeometry width="50" height="50" relative="1" as="geometry">
            <mxPoint x="940" y="438" as="sourcePoint" />
            <mxPoint x="810" y="510" as="targetPoint" />
          </mxGeometry>
        </mxCell>
        <mxCell id="4QjDc2ntXNkwie98VRhu-38" value="" style="endArrow=none;html=1;rounded=0;entryX=0;entryY=0.5;entryDx=0;entryDy=0;exitX=1;exitY=0.5;exitDx=0;exitDy=0;" edge="1" parent="1" source="4QjDc2ntXNkwie98VRhu-25" target="4QjDc2ntXNkwie98VRhu-36">
          <mxGeometry width="50" height="50" relative="1" as="geometry">
            <mxPoint x="760" y="560" as="sourcePoint" />
            <mxPoint x="810" y="510" as="targetPoint" />
          </mxGeometry>
        </mxCell>
        <mxCell id="4QjDc2ntXNkwie98VRhu-39" value="Owns" style="rhombus;whiteSpace=wrap;html=1;" vertex="1" parent="1">
          <mxGeometry x="210" y="520" width="100" height="80" as="geometry" />
        </mxCell>
        <mxCell id="4QjDc2ntXNkwie98VRhu-40" value="" style="endArrow=none;html=1;rounded=0;exitX=1;exitY=0.5;exitDx=0;exitDy=0;entryX=0.4;entryY=1;entryDx=0;entryDy=0;entryPerimeter=0;" edge="1" parent="1" source="4QjDc2ntXNkwie98VRhu-39" target="4QjDc2ntXNkwie98VRhu-29">
          <mxGeometry width="50" height="50" relative="1" as="geometry">
            <mxPoint x="280" y="560" as="sourcePoint" />
            <mxPoint x="580" y="560" as="targetPoint" />
            <Array as="points">
              <mxPoint x="570" y="560" />
            </Array>
          </mxGeometry>
        </mxCell>
        <mxCell id="4QjDc2ntXNkwie98VRhu-41" value="" style="endArrow=none;html=1;rounded=0;entryX=0;entryY=0.5;entryDx=0;entryDy=0;" edge="1" parent="1" target="4QjDc2ntXNkwie98VRhu-39">
          <mxGeometry width="50" height="50" relative="1" as="geometry">
            <mxPoint x="50" y="560" as="sourcePoint" />
            <mxPoint x="190" y="510" as="targetPoint" />
            <Array as="points">
              <mxPoint x="50" y="350" />
              <mxPoint x="50" y="560" />
            </Array>
          </mxGeometry>
        </mxCell>
        <mxCell id="4QjDc2ntXNkwie98VRhu-43" value="1..*" style="text;html=1;align=center;verticalAlign=middle;resizable=0;points=[];autosize=1;strokeColor=none;fillColor=none;" vertex="1" parent="1">
          <mxGeometry x="175" y="570" width="40" height="30" as="geometry" />
        </mxCell>
        <mxCell id="4QjDc2ntXNkwie98VRhu-45" value="Product" style="rounded=0;whiteSpace=wrap;html=1;fillColor=#E6E6E6;" vertex="1" parent="1">
          <mxGeometry x="810" y="620" width="110" height="40" as="geometry" />
        </mxCell>
        <mxCell id="4QjDc2ntXNkwie98VRhu-46" value="Referes to" style="rhombus;whiteSpace=wrap;html=1;" vertex="1" parent="1">
          <mxGeometry x="540" y="600" width="100" height="80" as="geometry" />
        </mxCell>
        <mxCell id="4QjDc2ntXNkwie98VRhu-49" value="" style="endArrow=none;html=1;rounded=0;exitX=0.5;exitY=0;exitDx=0;exitDy=0;entryX=0.61;entryY=1;entryDx=0;entryDy=0;entryPerimeter=0;" edge="1" parent="1" source="4QjDc2ntXNkwie98VRhu-46" target="4QjDc2ntXNkwie98VRhu-29">
          <mxGeometry width="50" height="50" relative="1" as="geometry">
            <mxPoint x="570" y="550" as="sourcePoint" />
            <mxPoint x="620" y="500" as="targetPoint" />
          </mxGeometry>
        </mxCell>
        <mxCell id="4QjDc2ntXNkwie98VRhu-50" value="" style="endArrow=none;html=1;rounded=0;exitX=0;exitY=0.5;exitDx=0;exitDy=0;entryX=1;entryY=0.5;entryDx=0;entryDy=0;" edge="1" parent="1" source="4QjDc2ntXNkwie98VRhu-45" target="4QjDc2ntXNkwie98VRhu-46">
          <mxGeometry width="50" height="50" relative="1" as="geometry">
            <mxPoint x="590" y="680" as="sourcePoint" />
            <mxPoint x="591" y="570" as="targetPoint" />
          </mxGeometry>
        </mxCell>
        <mxCell id="4QjDc2ntXNkwie98VRhu-51" value="*..1" style="text;html=1;align=center;verticalAlign=middle;resizable=0;points=[];autosize=1;strokeColor=none;fillColor=none;" vertex="1" parent="1">
          <mxGeometry x="680" y="610" width="40" height="30" as="geometry" />
        </mxCell>
        <mxCell id="4QjDc2ntXNkwie98VRhu-52" value="" style="rhombus;whiteSpace=wrap;html=1;" vertex="1" parent="1">
          <mxGeometry x="730" y="190" width="60" height="60" as="geometry" />
        </mxCell>
        <mxCell id="4QjDc2ntXNkwie98VRhu-54" value="" style="endArrow=none;html=1;rounded=0;" edge="1" parent="1">
          <mxGeometry width="50" height="50" relative="1" as="geometry">
            <mxPoint x="700" y="320" as="sourcePoint" />
            <mxPoint x="700" y="220" as="targetPoint" />
          </mxGeometry>
        </mxCell>
        <mxCell id="4QjDc2ntXNkwie98VRhu-55" value="" style="endArrow=none;html=1;rounded=0;" edge="1" parent="1">
          <mxGeometry width="50" height="50" relative="1" as="geometry">
            <mxPoint x="700" y="220" as="sourcePoint" />
            <mxPoint x="730" y="220" as="targetPoint" />
          </mxGeometry>
        </mxCell>
        <mxCell id="4QjDc2ntXNkwie98VRhu-56" value="" style="endArrow=none;html=1;rounded=0;" edge="1" parent="1">
          <mxGeometry width="50" height="50" relative="1" as="geometry">
            <mxPoint x="790" y="219.5" as="sourcePoint" />
            <mxPoint x="820" y="219.5" as="targetPoint" />
          </mxGeometry>
        </mxCell>
        <mxCell id="4QjDc2ntXNkwie98VRhu-57" value="" style="endArrow=none;html=1;rounded=0;" edge="1" parent="1">
          <mxGeometry width="50" height="50" relative="1" as="geometry">
            <mxPoint x="700" y="320" as="sourcePoint" />
            <mxPoint x="710" y="320" as="targetPoint" />
          </mxGeometry>
        </mxCell>
        <mxCell id="4QjDc2ntXNkwie98VRhu-58" value="" style="endArrow=none;html=1;rounded=0;" edge="1" parent="1">
          <mxGeometry width="50" height="50" relative="1" as="geometry">
            <mxPoint x="820" y="320" as="sourcePoint" />
            <mxPoint x="820" y="220" as="targetPoint" />
          </mxGeometry>
        </mxCell>
        <mxCell id="4QjDc2ntXNkwie98VRhu-59" value="" style="endArrow=none;html=1;rounded=0;" edge="1" parent="1">
          <mxGeometry width="50" height="50" relative="1" as="geometry">
            <mxPoint x="810" y="320.5" as="sourcePoint" />
            <mxPoint x="820" y="320.5" as="targetPoint" />
          </mxGeometry>
        </mxCell>
        <mxCell id="4QjDc2ntXNkwie98VRhu-61" value="" style="endArrow=none;html=1;rounded=0;entryX=1;entryY=0.5;entryDx=0;entryDy=0;exitX=0;exitY=0.5;exitDx=0;exitDy=0;" edge="1" parent="1">
          <mxGeometry width="50" height="50" relative="1" as="geometry">
            <mxPoint x="790" y="219.5" as="sourcePoint" />
            <mxPoint x="730" y="219.5" as="targetPoint" />
          </mxGeometry>
        </mxCell>
        <mxCell id="4QjDc2ntXNkwie98VRhu-62" value="Broker" style="text;html=1;align=center;verticalAlign=middle;whiteSpace=wrap;rounded=0;" vertex="1" parent="1">
          <mxGeometry x="732" y="196" width="60" height="30" as="geometry" />
        </mxCell>
        <mxCell id="4QjDc2ntXNkwie98VRhu-63" value="Recruiter" style="text;html=1;align=center;verticalAlign=middle;whiteSpace=wrap;rounded=0;" vertex="1" parent="1">
          <mxGeometry x="732" y="212" width="60" height="30" as="geometry" />
        </mxCell>
        <mxCell id="4QjDc2ntXNkwie98VRhu-70" value="BillingAccount" style="rounded=0;whiteSpace=wrap;html=1;" vertex="1" parent="1">
          <mxGeometry x="420" y="110" width="100" height="40" as="geometry" />
        </mxCell>
        <mxCell id="4QjDc2ntXNkwie98VRhu-71" value="BilledThrough" style="rhombus;whiteSpace=wrap;html=1;" vertex="1" parent="1">
          <mxGeometry x="435" y="199" width="40" height="43" as="geometry" />
        </mxCell>
        <mxCell id="4QjDc2ntXNkwie98VRhu-75" value="&lt;span style=&quot;caret-color: rgba(0, 0, 0, 0); color: rgba(0, 0, 0, 0); font-family: monospace; font-size: 0px; text-align: start; background-color: rgb(236, 236, 236);&quot;&gt;%3CmxGraphModel%3E%3Croot%3E%3CmxCell%20id%3D%220%22%2F%3E%3CmxCell%20id%3D%221%22%20parent%3D%220%22%2F%3E%3CmxCell%20id%3D%222%22%20value%3D%22%22%20style%3D%22endArrow%3Dnone%3Bhtml%3D1%3Brounded%3D0%3BentryX%3D0.5%3BentryY%3D1%3BentryDx%3D0%3BentryDy%3D0%3BexitX%3D0.5%3BexitY%3D0%3BexitDx%3D0%3BexitDy%3D0%3B%22%20edge%3D%221%22%20parent%3D%221%22%3E%3CmxGeometry%20width%3D%2250%22%20height%3D%2250%22%20relative%3D%221%22%20as%3D%22geometry%22%3E%3CmxPoint%20x%3D%22580%22%20y%3D%22450%22%20as%3D%22sourcePoint%22%2F%3E%3CmxPoint%20x%3D%22580%22%20y%3D%22370%22%20as%3D%22targetPoint%22%2F%3E%3C%2FmxGeometry%3E%3C%2FmxCell%3E%3C%2Froot%3E%3C%2FmxGraphModel%3E&lt;/span&gt;" style="endArrow=none;html=1;rounded=0;entryX=0.5;entryY=1;entryDx=0;entryDy=0;" edge="1" parent="1">
          <mxGeometry width="50" height="50" relative="1" as="geometry">
            <mxPoint x="455" y="310" as="sourcePoint" />
            <mxPoint x="454.58" y="242" as="targetPoint" />
          </mxGeometry>
        </mxCell>
        <mxCell id="4QjDc2ntXNkwie98VRhu-76" value="&lt;span style=&quot;caret-color: rgba(0, 0, 0, 0); color: rgba(0, 0, 0, 0); font-family: monospace; font-size: 0px; text-align: start; background-color: rgb(236, 236, 236);&quot;&gt;%3CmxGraphModel%3E%3Croot%3E%3CmxCell%20id%3D%220%22%2F%3E%3CmxCell%20id%3D%221%22%20parent%3D%220%22%2F%3E%3CmxCell%20id%3D%222%22%20value%3D%22%22%20style%3D%22endArrow%3Dnone%3Bhtml%3D1%3Brounded%3D0%3BentryX%3D0.5%3BentryY%3D1%3BentryDx%3D0%3BentryDy%3D0%3BexitX%3D0.5%3BexitY%3D0%3BexitDx%3D0%3BexitDy%3D0%3B%22%20edge%3D%221%22%20parent%3D%221%22%3E%3CmxGeometry%20width%3D%2250%22%20height%3D%2250%22%20relative%3D%221%22%20as%3D%22geometry%22%3E%3CmxPoint%20x%3D%22580%22%20y%3D%22450%22%20as%3D%22sourcePoint%22%2F%3E%3CmxPoint%20x%3D%22580%22%20y%3D%22370%22%20as%3D%22targetPoint%22%2F%3E%3C%2FmxGeometry%3E%3C%2FmxCell%3E%3C%2Froot%3E%3C%2FmxGraphModel%3E&lt;/span&gt;" style="endArrow=none;html=1;rounded=0;entryX=0.5;entryY=1;entryDx=0;entryDy=0;" edge="1" parent="1">
          <mxGeometry width="50" height="50" relative="1" as="geometry">
            <mxPoint x="455" y="200" as="sourcePoint" />
            <mxPoint x="454.58" y="150" as="targetPoint" />
          </mxGeometry>
        </mxCell>
        <mxCell id="4QjDc2ntXNkwie98VRhu-78" value="Invoice" style="rounded=0;whiteSpace=wrap;html=1;" vertex="1" parent="1">
          <mxGeometry x="650" y="80" width="100" height="40" as="geometry" />
        </mxCell>
      </root>
    </mxGraphModel>
  </diagram>
</mxfile>
